<svg class="jss110" width="16" height="16" viewBox="0 0 1024 1024" xmlns="http://www.w3.org/2000/svg" style="display: flex; vertical-align: middle; min-width: auto;"><path d="M1008.798 231.652c0.355 1.256 0.559 2.699 0.56 4.189v0 219.798c0 0.011 0 0.024 0 0.037 0 5.895-3.186 11.045-7.929 13.824l-0.076 0.041-184.537 106.21v210.526c0 0.011 0 0.024 0 0.037 0 5.895-3.186 11.045-7.929 13.824l-0.076 0.041-385.097 221.693c-0.787 0.42-1.714 0.813-2.677 1.126l-0.125 0.035c-0.36 0.12-0.694 0.334-1.081 0.44-1.233 0.337-2.648 0.531-4.109 0.531s-2.876-0.194-4.222-0.557l0.113 0.026c-0.44-0.12-0.841-0.36-1.267-0.52-1.037-0.324-1.921-0.69-2.763-1.125l0.095 0.045-385.031-221.693c-4.819-2.82-8.005-7.97-8.005-13.865 0-0.013 0-0.026 0-0.039v0.002-659.395c0.009-1.479 0.213-2.907 0.587-4.264l-0.027 0.115c0.12-0.467 0.4-0.881 0.56-1.334 0.309-0.965 0.657-1.786 1.069-2.568l-0.041 0.087c0.366-0.579 0.726-1.075 1.115-1.547l-0.021 0.026c0.463-0.702 0.933-1.311 1.442-1.885l-0.015 0.017c0.471-0.408 0.989-0.803 1.531-1.165l0.057-0.036c0.524-0.473 1.099-0.913 1.709-1.303l0.052-0.031 192.529-110.853c2.296-1.348 5.058-2.145 8.005-2.145s5.709 0.796 8.080 2.186l-0.076-0.041 192.515 110.84c0.666 0.449 1.24 0.888 1.787 1.356l-0.026-0.022c0.59 0.408 1.099 0.802 1.585 1.221l-0.025-0.021c0.493 0.56 0.967 1.174 1.4 1.817l0.041 0.064c0.366 0.424 0.721 0.889 1.048 1.375l0.033 0.052c0.366 0.69 0.718 1.51 1.005 2.36l0.036 0.121c0.16 0.467 0.44 0.881 0.56 1.334 0.353 1.255 0.557 2.698 0.56 4.187v411.902l160.416-92.375v-210.539c0.005-1.483 0.21-2.916 0.587-4.276l-0.027 0.114c0.133-0.48 0.4-0.907 0.56-1.334 0.331-0.978 0.683-1.798 1.089-2.585l-0.049 0.104c0.294-0.52 0.747-0.947 1.081-1.428 0.465-0.701 0.939-1.31 1.454-1.882l-0.013 0.014c0.465-0.411 0.974-0.805 1.508-1.167l0.053-0.034c0.524-0.458 1.098-0.897 1.701-1.297l0.060-0.038 192.635-110.906c2.296-1.348 5.058-2.145 8.005-2.145s5.709 0.796 8.080 2.186l-0.076-0.041 192.515 110.84c0.682 0.444 1.269 0.883 1.827 1.356l-0.026-0.022c0.494 0.4 1.081 0.76 1.548 1.201 0.489 0.56 0.962 1.173 1.398 1.814l0.043 0.067c0.376 0.425 0.732 0.891 1.053 1.382l0.028 0.046c0.376 0.697 0.729 1.518 1.009 2.371l0.031 0.11c0.197 0.378 0.396 0.837 0.563 1.309l0.024 0.078zM977.26 446.367v-182.776l-160.483 92.375v182.776l160.469-92.375zM784.744 777.005v-182.896l-353.038 201.481v184.631zM46.742 154.619v622.386l352.931 203.188v-184.577l-184.457-104.356c5.721 4.215 4.666 3.402 3.611 2.589l-6.853-5.071c-0.462-0.505-0.901-1.053-1.301-1.63l-0.034-0.051c-0.403-0.464-0.798-0.973-1.163-1.503l-0.038-0.058c-0.303-0.562-0.587-1.223-0.815-1.911l-0.026-0.090c-0.27-0.503-0.527-1.099-0.736-1.716l-0.025-0.085c-0.154-0.679-0.268-1.483-0.318-2.305l-0.002-0.043c-0.109-0.513-0.194-1.13-0.238-1.758l-0.002-0.043v-430.591l-160.549-92.242zM223.235 34.547l-160.416 92.335 160.363 92.335 160.389-92.362-160.389-92.309zM306.658 610.772l93.056-53.565v-402.588l-160.456 92.415v402.534zM800.794 143.506l-160.443 92.335 160.443 92.349 160.363-92.349zM784.784 355.953l-160.443-92.362v182.776l160.443 92.362zM415.697 767.853l352.838-201.414-160.203-92.269-352.758 203.055z" fill="rgb(255, 45, 32)"></path></svg>