<svg class="jss110" width="16" height="16" viewBox="0 0 1024 1024" xmlns="http://www.w3.org/2000/svg" style="display: flex; vertical-align: middle; min-width: auto;"><path d="M893.358 427.090h-277.77c-13.944-0.006-25.246-11.308-25.252-25.251l-0-0.001v-289.475c-0.023-21.415-17.383-38.767-38.798-38.779l-99.186-0c-21.435 0.006-38.81 17.384-38.81 38.82v287.744c0 0 0 0 0 0 0 14.931-12.063 27.044-26.975 27.125l-91.123 0.43c-14.981 0-27.126-12.145-27.126-27.126 0-0.007 0-0.014 0-0.022l-0 0.001v-0.061l0.563-288v-0.133c0-21.434-17.376-38.81-38.81-38.81v0h-99.103c-21.435 0.006-38.81 17.384-38.81 38.82l-0 0v810.598c0 19.030 15.427 34.458 34.458 34.458h766.781c19.013-0.023 34.417-15.442 34.417-34.458l-0-0v-461.425c0-19.030-15.427-34.458-34.458-34.458v0 0zM763.095 731.423c0 24.957-20.232 45.189-45.189 45.189v0h-78.346c-24.957-0-45.189-20.232-45.189-45.189h-0v-78.356c0-24.957 20.232-45.189 45.189-45.189h78.295c24.957 0 45.189 20.232 45.189 45.189v0 0 78.367z" fill="rgb(255, 102, 2)"></path></svg>