<svg xmlns="http://www.w3.org/2000/svg" viewBox="0 0 24 24" height="16" width="16"><title>Access_32x</title><path d="M6,15v6c0,1.65674,4.02954,3,9,3s9-1.34326,9-3V15Z" fill="#881421"/><path d="M6,9v6c0,1.65674,4.02954,3,9,3s9-1.34326,9-3V9Z" fill="#af2031"/><path d="M6,3V9c0,1.65674,4.02954,3,9,3s9-1.34326,9-3V3Z" fill="#c94f60"/><ellipse cx="15" cy="3" rx="9" ry="3" fill="#e08095"/><rect x="-0.00004" width="24" height="24" fill="none"/><path d="M13.83327,6H6V19.99993h7.60417a1.5,1.5,0,0,0,1.39577-1.3541V7.16668A1.17009,1.17009,0,0,0,13.83327,6Z" opacity="0.5"/><rect y="5.00001" width="13.99996" height="13.99993" rx="1.16666" fill="#af2031"/><path d="M6.11574,8H7.92885L10.841,16H9.12829l-.64156-1.908H5.49091L4.86051,16H3.159Zm1.986,4.85913-.93166-2.8954A3.846,3.846,0,0,1,6.99719,9.311H6.96372a3.70118,3.70118,0,0,1-.16737.66946l-.94281,2.87866Z" fill="#fff"/></svg>
