<svg class="jss110" width="16" height="16" viewBox="0 0 1024 1024" xmlns="http://www.w3.org/2000/svg" style="display: flex; vertical-align: middle; min-width: auto;"><path d="M857.334 934.236c-25.979 0-51.968-0.328-77.937 0.164-10.066 0.184-13.476-2.785-8.868-12.227 12.288-25.098 1.905-42.67-15.073-62.464-119.757-139.735-238.111-280.637-357.284-420.925-4.235-3.605-6.903-8.94-6.903-14.898 0-4.623 1.606-8.87 4.291-12.215l-0.030 0.038c22.436-37.366 43.889-75.336 64.932-113.51 3.349-7.623 10.833-12.851 19.538-12.851 0.927 0 1.841 0.059 2.737 0.174l-0.106-0.011c21.504 0.696 43.11 0.287 64.655-0.358 0.683-0.065 1.477-0.102 2.279-0.102 8.301 0 15.679 3.951 20.357 10.075l0.045 0.062q199.414 236.288 399.749 471.798c5.896 5.402 9.58 13.137 9.58 21.732 0 3.749-0.701 7.335-1.979 10.633l0.068-0.201c-10.967 39.803-18.729 80.507-26.86 121.037-2.109 10.506-5.581 14.705-16.927 14.336-25.395-0.911-50.842-0.287-76.268-0.287z" fill="rgb(12, 182, 154)"></path><path d="M41.175 836.444c0-26.542 0.379-53.094-0.205-79.626-0.018-0.421-0.028-0.916-0.028-1.413 0-8.669 3.148-16.603 8.364-22.721l-0.041 0.049c39.936-50.176 79.8-100.352 119.122-151.009 3.869-6.5 10.858-10.787 18.849-10.787 1.187 0 2.351 0.095 3.486 0.276l-0.125-0.017c27.843 4.444 49.029-5.775 69.335-25.19 30.72-29.368 64.512-55.562 96.543-83.548 7.424-6.482 11.602-6.922 18.432 1.229q81.295 97.403 163.604 193.956c3.566 3.025 5.814 7.509 5.814 12.519 0 4.566-1.868 8.695-4.881 11.666l-0.002 0.002c-12.646 17.408-24.33 35.574-35.369 54.057-3.775 7.512-11.421 12.577-20.249 12.577-0.802 0-1.595-0.042-2.376-0.123l0.098 0.008c-45.896-0.645-91.802 0-137.697-0.481-0.715-0.071-1.545-0.111-2.385-0.111-8.762 0-16.496 4.402-21.111 11.115l-0.056 0.087c-43.069 56.791-87.040 112.937-130.048 169.718-2.347 3.449-6.254 5.684-10.683 5.684-0.544 0-1.080-0.034-1.606-0.099l0.063 0.006c-41.984 0-84.060-0.266-126.085 0.184-9.288 0.102-10.885-3.645-10.783-11.725 0.246-28.774 0.020-57.528 0.020-86.282z" fill="rgb(30, 190, 204)"></path><path d="M482.642 250.675c21.412-34.652 32.625-71.424 66.775-94.147 26.903-19.421 50.418-38.565 72.785-58.946l-0.644 0.578c3.18-3.677 7.853-5.99 13.065-5.99 5.083 0 9.652 2.199 12.808 5.698l0.014 0.015q84.111 67.379 169.206 133.53c9.124 7.107 13.455 12.677 1.649 20.48-15.36 10.168-12.616 19.988-2.263 33.208 9.431 12.052 20.552 23.091 22.067 41.247 0.532 3.008 0.837 6.47 0.837 10.004 0 22.139-11.948 41.487-29.748 51.948l-0.283 0.154c-21.992 15.737-41.266 31.528-59.465 48.459l0.36-0.331c-6.82 5.847-10.588 6.441-16.927-1.188-47.677-57.416-96.061-114.237-143.729-171.663-5.652-8.176-14.976-13.465-25.535-13.465-0.79 0-1.574 0.030-2.349 0.088l0.103-0.006c-24.801 1.157-49.695 0.328-78.725 0.328z" fill="rgb(60, 183, 100)"></path><path d="M480.973 934.246c-32.010 0-64.020-0.297-96.031 0.164-10.639 0.154-17.101-0.635-12.933-14.131 1.557-4.715 2.455-10.143 2.455-15.781 0-13.328-5.019-25.483-13.27-34.679l0.043 0.048c-11.571-14.623-20.275-31.488-30.894-46.92-2.415-2.798-3.886-6.469-3.886-10.484 0-4.268 1.662-8.148 4.375-11.028l-0.008 0.008c7.513-12.254 20.834-20.306 36.035-20.306 1.79 0 3.554 0.112 5.285 0.328l-0.206-0.021c44.104 1.434 88.3 0.829 132.434 0.195 0.538-0.039 1.165-0.062 1.797-0.062 9.001 0 16.94 4.547 21.646 11.47l0.058 0.091c22.333 28.744 44.636 57.58 68.608 84.992 10.138 11.571 8.786 20.562 4.68 33.792-5.714 18.432-15.155 24.146-34.12 22.917-28.59-1.956-57.395-0.594-86.067-0.594z" fill="rgb(28, 159, 205)"></path></svg>